# xmcd
#
# Track frame offsets:
#	150
#	12471
#	26044
#	40485
#	52837
#	67387
#	82000
#	98016
#	114622
#	128943
#	143631
#	159220
#	174930
#	188475
#	202769
#	217938
#	230259
#	243007
#	256668
#	274576
#	291140
#
# Disc length: 4042 seconds
#
# Revision: 8
# Processed by: cddbd v1.5.2PL0 Copyright (c) Steve Scherf et al.
# Submitted via: EasyCDDAExtractor 12.0.1.1
#
DISCID=160fc815
DTITLE=Tammy Wynette - Tears Of Fire - The 25th Anniversary Collection - Disc 
DTITLE=3 of 3
DYEAR=1992
DGENRE=Country
TTITLE0=Two Story House  (with George Jones)
TTITLE1=Cowboys Don't Shoot Straight (Like They Used To)
TTITLE2=Crying In The Rain
TTITLE3=Another Chance
TTITLE4=You Still Get To Me In My Dreams
TTITLE5=Unwed Fathers
TTITLE6=(I'm Not) A Candle In The Wind
TTITLE7=Sometimes When We Touch (with Mark Gray)
TTITLE8=Between Twenty Nine And Danger
TTITLE9=Alive And Well
TTITLE10=Talkin' To Myself Again (with The O'Kanes)
TTITLE11=I Wasn't Meant To Live My Life Alone (with Vince Gill)
TTITLE12=Beneath A Painted Sky (with Emmylou Harris)
TTITLE13=Your Love (with Ricky Skaggs)
TTITLE14=Higher Ground (with Larry, Steve and Rudy Gatlin)
TTITLE15=Liar's Roses
TTITLE16=We're Strangers Again (with Randy Travis)
TTITLE17=Suddenly Single
TTITLE18=It Could've Been So Good
TTITLE19=Justified And Ancient X (with The KLF)
TTITLE20=Precious Memories (with The Masters Five)
EXTD=
EXTT0=
EXTT1=
EXTT2=
EXTT3=
EXTT4=
EXTT5=
EXTT6=
EXTT7=
EXTT8=
EXTT9=
EXTT10=
EXTT11=
EXTT12=
EXTT13=
EXTT14=
EXTT15=
EXTT16=
EXTT17=
EXTT18=
EXTT19=
EXTT20=
PLAYORDER=
